<?xml version="1.0" encoding="UTF-8" standalone="no"?>
<!-- Created with Inkscape (http://www.inkscape.org/) -->

<svg xmlns="http://www.w3.org/2000/svg" xml:space="preserve" width="145" height="100" viewBox="0 0 775.147 494.547"><defs><clipPath id="a" clipPathUnits="userSpaceOnUse"><path d="M0 0h5813.61v3709H0Z"/></clipPath></defs><g clip-path="url(#a)" transform="matrix(.13333 0 0 -.13333 0 494.547)"><path d="M2918.05 779.801c0 .078-66.19 10.39-67.54 41.289-60.1 1351.98-184.05 1299.48-2782.893 1351.98C18.81 2174.12 0 2244.49 0 2244.49h2918.05V779.801" style="fill:#035b6e;fill-opacity:1;fill-rule:nonzero;stroke:none"/><path d="M2895.55 3709.14c0-.1 66.23-10.41 67.61-41.33 60.12-1351.99 184.03-1299.45 2782.84-1351.99 48.9-.98 67.61-71.39 67.61-71.39H2895.55v1464.71" style="fill:#82064a;fill-opacity:1;fill-rule:nonzero;stroke:none"/><path d="m3745.76 457.621-6.83 4.098c-2.04-2.071-6.12-4.75-10.86-4.75-6.21 0-21.19 12.91-46.41 26.601-25.27 13.602-61.41 26.571-111.19 26.571-148.71 0-229.22-122.782-229.22-255.02C3341.25 122.789 3421.76 0 3567.75 0c114.57 0 146.61 64.082 175.26 64.082 2.75 0 4.74-1.313 6.15-1.313l5.39 2.68-60.68 83.262-6.82-4.16c.7-3.34 1.37-6.821 1.37-10.199 0-33.391-58.62-67.5-115.18-66.153-107.79 2.07-151.48 92.781-151.48 188.281 0 94.09 46.37 185.45 149.41 185.45 54.59 0 110.49-28.649 110.49-55.188 0-6.121 1.31-10.242 0-12.972l8.16-3.418zM2686.54 57.93l8.19-3.34c2.71 3.34 6.85 4.75 10.27 5.41 7.48.7 62.71-60 189.59-60C3002.32 0 3076 62.11 3076 154.121c0 202.559-295.32 103.77-295.32 214.16 0 42.289 25.2 73.649 102.33 73.649 59.96 0 130.88-25.879 130.88-62.09 0-2.668 0-5.41-.65-7.418l8.85-4.141 47.75 103.008-6.81 2.672c-5.45-6.09-11.64-7.5-15.65-7.5-8.18 0-23.2 10.98-48.47 21.859-25.2 10.942-60.69 21.821-111.84 21.821-107.79 0-184.16-51.821-184.16-144.539 0-194.473 292.62-91.461 292.62-215.602 0-56.559-40.96-81.8-100.3-81.8-68.84 0-152.09 38.21-152.09 74.382 0 3.379 0 6.719.67 10.188l-7.52 4.121zM2419.86 457.62l-6.79 4.098c-2.05-2.071-6.16-4.75-10.9-4.75-6.15 0-21.17 12.91-46.37 26.601-25.29 13.602-61.44 26.571-111.21 26.571-148.67 0-229.18-122.782-229.18-255.02C2015.41 122.789 2095.92 0 2241.89 0c114.54 0 146.63 64.082 175.22 64.082 2.75 0 4.84-1.313 6.21-1.313l5.49 2.68-60.78 83.262-6.82-4.16c.67-3.34 1.41-6.821 1.41-10.199 0-33.391-58.66-67.5-115.32-66.153-107.75 2.07-151.38 92.781-151.38 188.281 0 94.09 46.37 185.45 149.37 185.45 54.57 0 110.51-28.649 110.51-55.188 0-6.121 1.33-10.242 0-12.972l8.16-3.418 55.9 87.269" style="fill:#000;fill-opacity:1;fill-rule:nonzero;stroke:none"/></g></svg>
